<svg xmlns="http://www.w3.org/2000/svg" viewBox="0 0 625.57 391.59">
  <g>
    <g>
      <g>
        <path d="M61.79,258.75s79.33,183.72,361.8,102.7,142.66-262,14.86-204.24S200.07,131,200.07,131s-74.88-48.8-129.95,13.57C70.12,144.54,29.92,185,61.79,258.75Z" fill="#ffefe1"/>
        <path d="M230.71,81.69s-9.35,54.75,92.52,58.68S471.53,69,438.3,48.41c-29.11-18-67.48,8.94-108.49-5.72C277.15,23.86,230.57,48.26,230.71,81.69Z" fill="#ffefe1"/>
      </g>
      <g>
        <g>
          <path d="M624.1,165a7.52,7.52,0,1,1-7.52-7.62A7.57,7.57,0,0,1,624.1,165Z" fill="none" stroke="#fff" stroke-linecap="round" stroke-linejoin="round" stroke-width="2.96"/>
          <path d="M17,230.74a7.81,7.81,0,0,1-7.76,7.87,7.87,7.87,0,0,1,0-15.74A7.82,7.82,0,0,1,17,230.74Z" fill="none" stroke="#fff" stroke-linecap="round" stroke-linejoin="round" stroke-width="2.96"/>
          <line x1="537.83" y1="117.63" x2="575.05" y2="117.63" fill="none" stroke="#fff" stroke-linecap="round" stroke-linejoin="round" stroke-width="2.96"/>
          <line x1="44.88" y1="294.14" x2="113.61" y2="294.14" fill="none" stroke="#fff" stroke-linecap="round" stroke-linejoin="round" stroke-width="2.96"/>
        </g>
        <g>
          <g>
            <path d="M138.7,63.17H55.22a3.56,3.56,0,0,1-3.57-3.56h0A3.57,3.57,0,0,1,55.22,56H138.7a3.57,3.57,0,0,1,3.57,3.57h0A3.56,3.56,0,0,1,138.7,63.17Z" fill="#ffc341"/>
            <path d="M611.54,322.71H574.67a3.56,3.56,0,0,1-3.56-3.57h0a3.56,3.56,0,0,1,3.56-3.57h36.87a3.57,3.57,0,0,1,3.57,3.57h0A3.57,3.57,0,0,1,611.54,322.71Z" fill="#ffc341"/>
            <rect x="328.29" width="11.04" height="10.69" rx="2.69" fill="#ffc341"/>
            <rect x="33.91" y="335.7" width="11.04" height="10.69" rx="2.69" fill="#ffc341"/>
          </g>
          <g>
            <g>
              <rect x="490.61" y="52.99" width="76.64" height="24.24" rx="2.31" fill="#ffc341"/>
              <g>
                <line x1="501.69" y1="61.3" x2="551.56" y2="61.3" fill="#ffc341" stroke="#fff" stroke-miterlimit="10" stroke-width="0.9"/>
                <line x1="501.69" y1="67.8" x2="523.9" y2="67.8" fill="#ffc341" stroke="#fff" stroke-miterlimit="10" stroke-width="0.9"/>
              </g>
            </g>
            <polygon points="499.47 74.59 499.47 83.68 510.91 74.59 499.47 74.59" fill="#ffc341"/>
          </g>
        </g>
      </g>
    </g>
    <g>
      <g>
        <g>
          <path d="M437.69,321.71l9.78,69.88h35.06c-2.53-45.16-7.11-117-12.22-147.53L445,288.27Z" fill="#588cfd"/>
          <g>
            <path d="M405.86,245.11c-8.67,39-16.86,104-21.71,146.48h39.24l15.35-69.88L445,288.27l25.28-44.21Z" fill="#588cfd"/>
            <polyline points="438.24 324.38 444.35 286.41 453.89 280.12" fill="none" stroke="#20181f" stroke-linecap="round" stroke-linejoin="round" stroke-width="1.05"/>
          </g>
        </g>
        <g>
          <g>
            <path d="M418.74,165.21a14.84,14.84,0,0,0-19.95-3L336.3,200.05a16,16,0,0,0-4.52,21.76h0c5,7.9,11.27,9.52,18.74,3.92,6.63-5,65-35.48,69.74-39.09C427,181.6,424,171.74,418.74,165.21Z" fill="#fff"/>
            <g>
              <path d="M396.67,259.81l-44.53-54.95a13.32,13.32,0,0,0-19.27-.49h0c-5.45,5.43-4.06,16,1.7,21.06l51,44.06Z" fill="#fff"/>
              <path d="M423.25,263.72,410,256.37l1.43-2.9a2.62,2.62,0,0,0-3.87-3.29l-13.09,9.29-8.93,10c7,6.5,11.79,6.6,14.58,5.5l.95.35L412.18,279a2.12,2.12,0,0,0,2.78-.89c.4-.71.57-1.88-1.54-3.05l2.11,1.17a2.22,2.22,0,0,0,2.92-1c.52-.93,0-2.21-1.26-3.08l1.62.71a2.28,2.28,0,0,0,3.1-1.23,2.35,2.35,0,0,0-1.12-2.87l-2.34-1.3,2.8.79a2.47,2.47,0,0,0,3.24-1.48A2.56,2.56,0,0,0,423.25,263.72Z" fill="#f9a9a3"/>
            </g>
          </g>
          <g>
            <path d="M459.21,165.12c4.19-6.05,11.7-7.33,17.23-3l53.83,38c6.14,4.87,7.84,14.49,3.85,21.77h0c-4.32,7.89-9.74,9.49-16.18,3.88-5.71-5-56-35.6-60.09-39.22C452.09,181.5,454.67,171.65,459.21,165.12Z" fill="#fff"/>
            <g>
              <path d="M478,259.77l38.56-54.86c4.42-5.62,12-5.83,16.64-.45h0c4.69,5.44,3.46,16-1.52,21l-44.12,44Z" fill="#fff"/>
              <path d="M455.09,263.63l11.42-7.32-1.23-2.91a2.92,2.92,0,0,1,.53-3.12,2,2,0,0,1,2.81-.16l11.28,9.32,7.69,10c-6.1,6.49-10.2,6.58-12.6,5.47l-.82.35-9.57,3.6a1.72,1.72,0,0,1-2.4-.89c-.34-.72-.48-1.89,1.34-3.06l-1.82,1.17a1.8,1.8,0,0,1-2.52-1,2.72,2.72,0,0,1,1.1-3.08l-1.41.7a1.88,1.88,0,0,1-2.67-1.23,2.54,2.54,0,0,1,1-2.87l2-1.29-2.42.79a2.06,2.06,0,0,1-2.79-1.49A2.73,2.73,0,0,1,455.09,263.63Z" fill="#f9a9a3"/>
            </g>
          </g>
          <g>
            <path d="M402.69,160.32s15.59-6.21,39.07-6.21,37.46,10.31,37.46,10.31l-8.91,79.64-64.45,1.05-10.65-57.29Z" fill="#fff"/>
            <line x1="475.44" y1="198.15" x2="476.89" y2="185.22" fill="none" stroke="#20181f" stroke-linecap="round" stroke-linejoin="round" stroke-width="1.05"/>
          </g>
        </g>
        <g>
          <g>
            <path d="M414.86,113.25s-14.74-22.51,3-25.1c10.6-1.55,13.66-4.88,26.62-9.42,15-5.25,35.63,11.54,13.39,28.18l-34.76-7.57Z" fill="#4d2e3c"/>
            <circle cx="454.15" cy="118.18" r="8.08" transform="translate(49.45 355.75) rotate(-45)" fill="#e88585"/>
            <path d="M446.33,128.16l.4,27.77c.06,7.81-5.3,8.4-13,8.4h0c-6.56,0-9.9-2.37-10.71-8.88l1.08-29.53Z" fill="#fca0a0"/>
            <polygon points="446.7 153.06 428.45 139.97 446.45 134.8 446.7 153.06" fill="#20181f"/>
            <path d="M438,142.3h1.56a18.92,18.92,0,0,0,18.91-19.54l-.64-19.41A19.72,19.72,0,0,0,438.1,84.28h0c-10.89,0-21.63,8.83-21.63,19.72l.94,18.73A20.59,20.59,0,0,0,438,142.3Z" fill="#fca0a0"/>
            <g>
              <polyline points="447.3 116.41 448.6 123.78 446 123.78" fill="none" stroke="#20181f" stroke-linecap="round" stroke-linejoin="round" stroke-width="1.23"/>
              <path d="M437.12,107.79s4.37-.51,4.47,1.3c0,0,0,1.23-3.77,1.6s-4.81.12-5.2-1S435.07,107.87,437.12,107.79Z" fill="#20181f"/>
              <path d="M453.83,107.69s-3.62-.26-3.86,1.45c0,0-.14,1.16,3,1.32s4.19-.29,4.45-1.23S455.55,107.66,453.83,107.69Z" fill="#20181f"/>
              <path d="M449.06,127.18H436.84s0,4.27,7.07,4.28A4.9,4.9,0,0,0,449.06,127.18Z" fill="#fff"/>
              <path d="M440.89,116.41a4.81,4.81,0,0,0-5,0" fill="none" stroke="#20181f" stroke-linecap="round" stroke-linejoin="round" stroke-width="1.23"/>
              <path d="M455.53,116.41s-1.43-1.55-4.32,0" fill="none" stroke="#20181f" stroke-linecap="round" stroke-linejoin="round" stroke-width="1.23"/>
            </g>
            <path d="M420,118.25s12.41-7.89,8-19c0,0,20.12-9.71,29.37.41l2.47-12.93L443.92,80.3,419,90.12l-6.42,9.59,2.16,12.38Z" fill="#4d2e3c"/>
            <g>
              <circle cx="414.87" cy="118.18" r="8.08" transform="translate(146.23 455.69) rotate(-67.38)" fill="#fca0a0"/>
              <path d="M417.69,120.58s0-5.86-5.6-4.94" fill="none" stroke="#20181f" stroke-linecap="round" stroke-linejoin="round" stroke-width="1.23"/>
            </g>
          </g>
          <g>
            <g>
              <polygon points="428.06 164.88 434.54 170.86 441.73 162.65 434.54 161.52 428.06 164.88" fill="#588cfd"/>
              <polygon points="433.24 169.63 426.17 228.64 434.73 238.37 442.49 228.53 435.62 169.39 433.24 169.63" fill="#588cfd"/>
            </g>
            <g>
              <polygon points="423.14 152.72 434.54 161.52 426.93 170.86 415.72 156.72 423.14 152.72" fill="#f4eded"/>
              <polygon points="446.7 153.06 434.54 161.52 442.14 170.86 453.71 156.72 446.7 153.06" fill="#f4eded"/>
            </g>
          </g>
        </g>
      </g>
      <g>
        <g>
          <g>
            <path d="M207.58,170.13a10.62,10.62,0,0,1,20.77-4.46c1,4.17,1.7,11.5,2.36,19.31l-21.86,6.67Z" fill="#fff"/>
            <path d="M208.85,191.65,230.71,185l2.89,30.1a10.25,10.25,0,0,1-9,11l-.2,0h0a11.43,11.43,0,0,1-13-9.17Z" fill="#f9a9a3"/>
          </g>
          <g>
            <path d="M241.18,299.7l-8.51-94.3s-4,.94-9.35,1.8h0a9.52,9.52,0,0,0-7.78,11.5l14,81.21Z" fill="#f9a9a3"/>
            <g>
              <path d="M226.53,298.12A11.43,11.43,0,1,1,233,312.94,11.43,11.43,0,0,1,226.53,298.12Z" fill="#f9a9a3"/>
              <path d="M243.51,311.05s3.05,3.32,5.66-2.08,2.52-12.27-7.82-17.3Z" fill="#f9a9a3"/>
            </g>
          </g>
        </g>
        <path d="M172.22,107.45l44.93,10.18s16.69,23.67,8.06,57.53H150.73s-6.08-13.63,7.38-32.5c8.27-11.59,14.11-35.21,14.11-35.21" fill="#ffc341"/>
        <g>
          <path d="M198,336.17l11.31,55.42h38.84c-2.24-18.29-5.58-42.17-10.54-71.73-13.16-78.56-21.56-97.44-21.56-97.44l-29.23-5.25-3.23,4.71,25.28.79Z" fill="#588cfd"/>
          <g>
            <path d="M183.59,221.88l-11.29-.35S153,242.08,152,280.09c-.67,25.36,0,74.53.73,111.5H192.7l5.3-55.42,10.87-113.5Z" fill="#588cfd"/>
            <g>
              <line x1="198" y1="336.17" x2="203.14" y2="261.18" fill="#588cfd" stroke="#20181f" stroke-linecap="round" stroke-linejoin="round" stroke-width="1.05"/>
              <line x1="203.14" y1="261.18" x2="212.24" y2="254.04" fill="#588cfd" stroke="#20181f" stroke-linecap="round" stroke-linejoin="round" stroke-width="1.05"/>
            </g>
          </g>
        </g>
        <g>
          <g>
            <path d="M194.33,155.22l-27.8,3.89a5.74,5.74,0,0,0-4.86,6.68l9.64,56.63h44.74L227.73,168a8.54,8.54,0,0,0-7.48-10Z" fill="#fff"/>
            <line x1="223.62" y1="187.14" x2="226.87" y2="173.09" fill="none" stroke="#20181f" stroke-linecap="round" stroke-linejoin="round" stroke-width="1.05"/>
          </g>
          <g>
            <g>
              <path d="M142.38,169l10.09,27.93s-31.22,10.51-38.08,14.7c-7.74,4.72-13.67,2.58-17.76-5.51h0A15.54,15.54,0,0,1,103,185.45Z" fill="#f9a9a3"/>
              <path d="M161.9,160.76a14.42,14.42,0,0,1,19,4.74c4.46,6.8,6.42,16.61-.51,20.86-5,3-27.93,10.52-27.93,10.52L142.38,169Z" fill="#fff"/>
              <line x1="165.71" y1="192.36" x2="175.6" y2="188.33" fill="none" stroke="#20181f" stroke-linecap="round" stroke-linejoin="round" stroke-width="1.05"/>
            </g>
            <g>
              <path d="M155.86,248.78l-38-57.22a12.93,12.93,0,0,0-18.58-2.25h0c-5.77,4.74-5.39,15.06-.29,20.51l45.25,47.29Z" fill="#f9a9a3"/>
              <path d="M181.19,255l-12.09-8.32,1.65-2.68a2.54,2.54,0,0,0-3.43-3.54l-13.52,7.78-9.55,8.86c6.2,6.94,10.79,7.47,13.59,6.66.29.14.58.3.88.43l10.37,4.52a2.06,2.06,0,0,0,2.77-.6c.45-.66.73-1.77-1.21-3.1l1.94,1.33a2.15,2.15,0,0,0,2.91-.67c.58-.86.17-2.15-.94-3.1l1.51.83a2.2,2.2,0,0,0,3.1-.9,2.28,2.28,0,0,0-.82-2.88l-2.14-1.46,2.64,1a2.4,2.4,0,0,0,3.27-1.14A2.48,2.48,0,0,0,181.19,255Z" fill="#f9a9a3"/>
            </g>
          </g>
        </g>
        <g>
          <path d="M210.55,118.25a7.87,7.87,0,1,0,8.4-7.31A7.86,7.86,0,0,0,210.55,118.25Z" fill="#ed908e"/>
          <path d="M198.72,89.54c1-1.75-.28-5-.28-5-9.85,0-18.35,3.15-23.25,12.16-7.2,13.24-2,33.71,15,39.94,16.26,6,7.6-45.41,7.6-45.41Z" fill="#ffc341"/>
          <path d="M208,139.89,206.92,157c-.37,6-4.27,9-10.19,8.59h0c-5-.35-9.62-3.29-9.9-8.34l3-26.88Z" fill="#f9a9a3"/>
          <polygon points="207.26 154.17 187.24 134.57 208.16 138.14 207.26 154.17" fill="#20181f"/>
          <path d="M202.8,142.66h0c10.12,0,18.47-7.94,18.78-16.2l.59-19.5a19.21,19.21,0,0,0-17.86-19.87h0c-7.78-.54-21.89,11-22.35,17.7l-.31,15.69C181.41,132.62,190.69,141.82,202.8,142.66Z" fill="#f9a9a3"/>
          <g>
            <path d="M198.39,84.54l.15,0Z" fill="#ffc341"/>
            <path d="M221.78,102.3c.42-10.18-8.5-16.54-15.18-18.17a30.42,30.42,0,0,0-16.81.64c-6.47,2.17-13.46,7-8.69,17.6-3.13,1.54-5.91,3.3-5.91,3.3l11.64,13.93s.85-3.83,2.06-12c6.08-2.4,5.85-5.95,6.48-9.77A103.66,103.66,0,0,0,221.78,102.3Z" fill="#ffc341"/>
          </g>
          <g>
            <path d="M172.2,118.25a7.87,7.87,0,1,0,8.4-7.31A7.87,7.87,0,0,0,172.2,118.25Z" fill="#f9a9a3"/>
            <path d="M182.64,121.32s.4-5.69-5.11-5.17" fill="none" stroke="#20181f" stroke-linecap="round" stroke-linejoin="round" stroke-width="1.18"/>
          </g>
          <g>
            <polyline points="210.57 119.45 211.19 124.6 208.53 124.7" fill="none" stroke="#20181f" stroke-linecap="round" stroke-linejoin="round" stroke-width="1.18"/>
            <path d="M198.87,108.87s4.54-.37,4.58,1.48c0,0,0,1.25-4,1.5s-5,0-5.36-1.22S196.74,108.88,198.87,108.87Z" fill="#20181f"/>
            <path d="M217.16,109.37s-3.75-.39-4.06,1.35c0,0-.18,1.17,3.1,1.44s4.35-.15,4.66-1.1S218.94,109.4,217.16,109.37Z" fill="#20181f"/>
            <path d="M198.57,116.75a1.71,1.71,0,1,0,1.76-1.65A1.71,1.71,0,0,0,198.57,116.75Z" fill="#20181f"/>
            <path d="M214.31,116.75a1.71,1.71,0,1,0,1.76-1.65A1.71,1.71,0,0,0,214.31,116.75Z" fill="#20181f"/>
            <path d="M210,129.25s-5.66,1.58-8.59-2.51" fill="none" stroke="#20181f" stroke-linecap="round" stroke-linejoin="round" stroke-width="1.18"/>
            <g>
              <line x1="211.62" y1="115.79" x2="207.81" y2="115.79" fill="none" stroke="#fff" stroke-miterlimit="10" stroke-width="1.34"/>
              <line x1="192.02" y1="115.79" x2="187.24" y2="115.79" fill="none" stroke="#fff" stroke-miterlimit="10" stroke-width="1.34"/>
              <circle cx="199.87" cy="115.64" r="7.85" transform="translate(-21.27 49.19) rotate(-13.33)" fill="none" stroke="#fff" stroke-miterlimit="10" stroke-width="1.34"/>
              <circle cx="218.97" cy="115.16" r="7.38" transform="translate(-17.3 188.57) rotate(-45)" fill="none" stroke="#fff" stroke-miterlimit="10" stroke-width="1.32"/>
            </g>
          </g>
        </g>
      </g>
      <g>
        <g>
          <path d="M345.19,249,276,251.83c-7.34,29.08-11.2,94.19-13.09,139.76H308.1l7.6-59.14,10.23,59.14h42.31C360.76,340.68,349,262.87,345.19,249Z" fill="#ffc341"/>
          <polyline points="315.7 332.45 321.37 288.83 334.87 282.36" fill="#ffc341" stroke="#20181f" stroke-linecap="round" stroke-linejoin="round" stroke-width="1.05"/>
        </g>
        <g>
          <path d="M255.14,162.53s31.48-11.64,59.29-12.58c0,0,14.8-.93,39.92,5.77a1.92,1.92,0,0,1,1.41,2.07L345.19,249l-69.46,2.87Z" fill="#588cfd"/>
          <g>
            <g>
              <polygon points="286.53 246 358.6 214.53 312.62 207.4 285.52 217.78 286.53 246" fill="#588cfd"/>
              <g>
                <path d="M244.94,184.33c3.81,16.32,19.64,52,19.64,52a16.83,16.83,0,0,0,21.95,9.7h0a16.84,16.84,0,0,0,9.55-21.63l-19.72-51.94a16.81,16.81,0,0,0-23-9.2h0C245.53,167,243,175.83,244.94,184.33Z" fill="#588cfd"/>
                <line x1="286.1" y1="198.08" x2="277.4" y2="175.16" fill="#588cfd" stroke="#20181f" stroke-linecap="round" stroke-linejoin="round" stroke-width="1.05"/>
              </g>
            </g>
            <g>
              <g>
                <path d="M338,183.81c10,13.44,36.71,35.65,36.71,35.65a16.84,16.84,0,0,0,24,.12h0c6.49-6.53,6.53-15,.1-21.59l-36.78-37.65a16.79,16.79,0,0,0-24.71.75h0C331.66,167.69,332.82,176.82,338,183.81Z" fill="#588cfd"/>
                <path d="M350.32,193.63s1.58-8.56,14.15-11.59l13.43,9.43-4.77,4.2Z" fill="#fca0a0"/>
              </g>
              <g>
                <polygon points="302.62 191.47 286.1 198.08 292.56 215.09 301.55 211.65 302.62 191.47" fill="#fca0a0"/>
                <g>
                  <polygon points="302.62 191.47 394.14 196.93 388.52 224.46 301.55 211.65 302.62 191.47" fill="#588cfd"/>
                  <polyline points="302.62 191.47 350.32 193.63 353.61 170.44" fill="#588cfd" stroke="#20181f" stroke-linecap="round" stroke-linejoin="round" stroke-width="1.05"/>
                  <polyline points="302.62 238.98 348.5 218.9 301.55 211.65" fill="#588cfd" stroke="#20181f" stroke-linecap="round" stroke-linejoin="round" stroke-width="1.05"/>
                </g>
              </g>
            </g>
          </g>
        </g>
        <g>
          <path d="M300,78.83c-4.77.31-20.94,4.12-15.53,20.11,6.55,19.33,9.78,21.79,9.78,21.79L293.68,92Z" fill="#4d2e3c"/>
          <path d="M331.53,80.19s18.9,5.54,5,26.33L317.34,84.84Z" fill="#4d2e3c"/>
          <path d="M325.91,113.05a8.07,8.07,0,0,0,7.76,8.32,8,8,0,0,0,8-8,7.9,7.9,0,1,0-15.79-.33Z" fill="#e88585"/>
          <path d="M324.28,129.72l1.07,21.22c.38,7.17-3.75,10.4-10.59,10.67h0c-5.84.24-12.39-2.27-12.45-8.61l-.11-32.2Z" fill="#fca0a0"/>
          <path d="M325.23,147.63l-24.71-16c-.72-6.09,23.7-4,23.7-4Z" fill="#20181f"/>
          <path d="M317.09,138.42h0c11.12-.53,19.83-10,19.69-19.42l-.41-19.64C336.19,87.6,327,78.07,315.6,77.84h0c-11.66-.25-23.32,9.28-23.52,21.32l.5,15.3C293,128.23,303.75,138.14,317.09,138.42Z" fill="#fca0a0"/>
          <g>
            <path d="M313,99.06s6-1.2,6.23.55c0,0,.13,1.18-3.48,1.82s-6.45.85-6.91-.23S311.08,99.28,313,99.06Z" fill="#20181f"/>
            <path d="M330.37,101.39s5.3.16,5.14,1.91c0,0,.67,1.2-3,1s-5.46-.54-5.67-1.69S328.41,101.18,330.37,101.39Z" fill="#20181f"/>
            <path d="M316,120.78c0,.32,3.29,3.19,7.84,1.78" fill="none" stroke="#20181f" stroke-linecap="round" stroke-linejoin="round" stroke-width="1.25"/>
            <path d="M329.5,109.68a1.84,1.84,0,1,0,1.79-1.88A1.85,1.85,0,0,0,329.5,109.68Z" fill="#20181f"/>
            <path d="M312.38,110.62a1.83,1.83,0,1,0,3.66.23,1.83,1.83,0,0,0-3.66-.23Z" fill="#20181f"/>
            <path d="M324.9,112.25l2.54,4.49a.75.75,0,0,1-.14,1l-1.57.86" fill="none" stroke="#20181f" stroke-linecap="round" stroke-linejoin="round" stroke-width="1.25"/>
          </g>
          <path d="M297.83,113.13s-3.47-16.16,4-24.35c0,0,31,9.38,35.74-3.21,6.8-17.87-12.82-23.24-24-17.91A36.38,36.38,0,0,0,300,78.83s-21.11,4.58-9.68,27.84Z" fill="#4d2e3c"/>
          <g>
            <path d="M282.35,114.58a8,8,0,0,0,7.69,8.24,8.08,8.08,0,1,0-7.69-8.24Z" fill="#fca0a0"/>
            <path d="M292.81,116.74s-.73-5.27-5.34-5" fill="none" stroke="#20181f" stroke-linecap="round" stroke-linejoin="round" stroke-width="1.25"/>
          </g>
          <path d="M302.62,150.92l-8.26,1.23s10,8.28,29.42,14l6.67-15.27-11.52-1.48Z" fill="#fca0a0"/>
        </g>
      </g>
    </g>
  </g>
</svg>
