<svg xmlns="http://www.w3.org/2000/svg" viewBox="0 0 215.39 61.73" fill="#588cfd">
      <path d="M13.85,39.43a4,4,0,0,1-.19,2.35,11.9,11.9,0,0,1-7.1,6.6c-1.6.46-2.74.13-3.26-.71.59.61,1.64.8,3,.41a11.89,11.89,0,0,0,7.1-6.61,3.34,3.34,0,0,0-.06-2.92c-.54-.84-1.67-1.17-3.22-.73a12.17,12.17,0,0,0-7,6.58c-.56,1.43-.47,2.55.11,3.22.36,1.19,1.61,1.7,3.48,1.17a11.89,11.89,0,0,0,7.1-6.61A3.52,3.52,0,0,0,13.85,39.43Z" />
      <path d="M10.81,31c.29,1.56-1.13,3.93-3.55,5.69-2.82,2-5.87,2.5-6.78,1a1.9,1.9,0,0,0,.14.4c.91,1.46,4,1,6.79-1C10.06,35.13,11.49,32.49,10.81,31Z" />
      <path d="M7,36.35c2.71-2,4.15-4.7,3.35-6.2,0,0,0-.09-.05-.12-.92-1.47-3.86-1-6.62,1S-.64,35.92.25,37.38a1.09,1.09,0,0,0,.18.19C1.49,38.78,4.36,38.29,7,36.35Z" />
      <path d="M9.55,25.75c-2.55,1.91-5.31,2.33-6.15,1a2.55,2.55,0,0,0,.13.39c.83,1.4,3.6,1,6.17-1s3.86-4.6,3-6C13.15,21.62,11.86,24,9.55,25.75Z" />
      <path d="M3.35,26.59c1,1.12,3.56.66,6-1.15s3.79-4.46,3.06-5.89c0,0,0-.07,0-.11-.84-1.4-3.51-1-6,.93s-4,4.61-3.17,6A1.29,1.29,0,0,0,3.35,26.59Z" />
      <path d="M16.61,14.3c-2.14,1.6-4.45,2-5.16.82a1.71,1.71,0,0,0,.13.38c.7,1.17,3,.82,5.18-.8s3.25-3.86,2.54-5h0C19.6,10.9,18.52,12.86,16.61,14.3Z" />
      <path d="M11.4,15c.85.9,3,.5,5-1S19.56,10.26,19,9.06c0,0,0-.07,0-.1-.69-1.18-2.94-.83-5.05.77s-3.33,3.88-2.66,5.06A1.19,1.19,0,0,0,11.4,15Z" />
      <path d="M27.1,6.35C25.32,7.68,23.41,8,22.81,7a1,1,0,0,0,.13.38c.57,1,2.51.68,4.31-.66S30,3.55,29.36,2.57C29.55,3.6,28.65,5.18,27.1,6.35Z" />
      <path d="M22.75,6.91c.73.71,2.48.37,4.13-.87S29.51,3,29,2c0,0,0-.07,0-.1-.58-1-2.45-.7-4.21.65S22,5.72,22.56,6.71A.9.9,0,0,0,22.75,6.91Z" />
      <path d="M38.13,4.33c-1.37,1.25-3,1.65-3.5.89h0a1,1,0,0,0,.16.42c.55.76,2.13.36,3.5-.9s1.94-2.8,1.43-3.58A4.1,4.1,0,0,1,38.13,4.33Z" />
      <path d="M34.54,5c.65.56,2.09.15,3.37-1S39.77,1.4,39.41.58a.87.87,0,0,0-.1-.19c-.56-.76-2.08-.38-3.42.87s-2,2.89-1.48,3.65A.8.8,0,0,0,34.54,5Z" />
      <path d="M47.05,6.27s0,0,0,0a3.32,3.32,0,0,1-1.55,2.53c-1.19.88-2.46,1.09-2.91.51a1,1,0,0,0,.1.34c.39.67,1.73.47,3-.45S47.45,6.94,47.05,6.27Z" />
      <path d="M45.23,8.44c1.15-.88,1.78-2.08,1.49-2.77,0,0,0-.08,0-.11-.4-.67-1.69-.48-2.89.45s-1.9,2.21-1.52,2.88a.91.91,0,0,0,.18.21C43,9.5,44.15,9.25,45.23,8.44Z" />
      <path d="M38.58,43.85c-1.87,3.65-5.75,6-8.63,5.25A3.53,3.53,0,0,1,28,47.74a3.57,3.57,0,0,0,1.72,1c2.88.77,6.76-1.6,8.62-5.25a6.57,6.57,0,0,0,.36-6,3.72,3.72,0,0,0-2.43-1.89c-2.89-.75-6.6,1.52-8.35,5.11-1.23,2.45-1.25,4.86-.26,6.42A3.55,3.55,0,0,0,30.1,49.5c2.87.77,6.76-1.6,8.62-5.25a7,7,0,0,0,.61-5.34A7.28,7.28,0,0,1,38.58,43.85Z" />
      <path d="M22.33,49.25c-2.2,3.45-5.66,5.39-7.68,4.29a2.27,2.27,0,0,1-.72-.66,2.61,2.61,0,0,0,.44.37c2,1.09,5.48-.84,7.68-4.3,1.82-2.9,2.1-5.94.9-7.45a2.35,2.35,0,0,0-.79-.68c-2-1.09-5.35.77-7.46,4.18-1.95,3.11-2.25,6.42-.82,7.84a2.39,2.39,0,0,0,1,1.09c2,1.1,5.47-.83,7.67-4.29,1.71-2.73,2.05-5.57,1.09-7.16C24.32,44.12,23.9,46.74,22.33,49.25Z" />
      <polygon points="163.67 10.21 153.6 25 153.29 25 156.31 10.21 142.42 10.21 135.96 41.84 151.01 41.84 160.96 27.05 161.27 27.05 158.25 41.84 172.14 41.84 178.59 10.21 163.67 10.21" />
      <polygon points="179.94 10.21 178.07 19.27 186.53 19.27 181.95 41.84 197.15 41.84 201.73 19.27 210.18 19.27 212.06 10.21 179.94 10.21" />
      <path d="M128.2,9.55a7.43,7.43,0,0,0-1.33-.11.22.22,0,0,0-.07-.06c-.69-.29-24.84.83-24.84.83L94.35,47.36l-10.27-21,18.23-19.8H83.91L70.56,23.19h-.23l3.36-16.6H57.53L49,48.84H65.13l3.63-17.93H69l6.77,17.93H94.05l-1.28,6.22H108l2.72-13.17c2,.2,5.45.53,8,.6.56,0,1.09.07,1.54.07,9.84,0,17.56-8.26,17.56-21.06C137.81,11.58,131.61,9.83,128.2,9.55Zm-8.13,20.1c-1.22,2.77-2.91,3.5-4.23,3.5-1.09,0-2.77-.55-2.77-3.5a17.29,17.29,0,0,1,1.32-6.4c1.15-2.65,2.72-3.5,4.17-3.5.79,0,2.84.25,2.84,3.5A18.84,18.84,0,0,1,120.07,29.65Z" />
      <polygon points="117.41 48.86 116.71 52.49 120.59 52.49 118.9 61.37 123.36 61.37 125.06 52.49 128.95 52.49 129.66 48.86 117.41 48.86" />
      <path d="M135.24,58.7a1.77,1.77,0,0,1-1.8-1.91,2.72,2.72,0,0,1,.06-.55H142a11.81,11.81,0,0,0,.21-2.2c0-3.43-1.87-5.53-5.35-5.53-4.48,0-7.81,4-7.81,8.28,0,3.2,2.17,4.94,5.3,4.94,2.62,0,5.65-1,7-4.13h-4.27A2.23,2.23,0,0,1,135.24,58.7Zm1.25-7.16a1.68,1.68,0,0,1,1.61,1.74,2.83,2.83,0,0,1,0,.43H134A2.42,2.42,0,0,1,136.49,51.54Z" />
      <path d="M145.16,54.19c-.58,3-.94,3.91-1.89,3.91a3.09,3.09,0,0,1-.77-.09l-.62,3.29a5.61,5.61,0,0,0,2.12.29c2.45,0,4.24-1.65,5.07-6l.58-3.1h2.51l-1.69,8.88h4.47l2.4-12.51H146.19Z" />
      <path d="M165.48,48.51c-4.49,0-7.82,4-7.82,8.28,0,3.2,2.17,4.94,5.31,4.94,2.62,0,5.65-1,7-4.13h-4.27a2.25,2.25,0,0,1-1.89,1.1A1.78,1.78,0,0,1,162,56.79a2.18,2.18,0,0,1,.07-.55h8.52a11.87,11.87,0,0,0,.22-2.2C170.83,50.61,169,48.51,165.48,48.51Zm1.16,5.2h-4.06a2.43,2.43,0,0,1,2.49-2.17,1.67,1.67,0,0,1,1.61,1.74C166.68,53.35,166.66,53.57,166.64,53.71Z" />
      <polygon points="186.18 48.86 180.97 48.86 177.38 52.68 178.11 48.86 173.64 48.86 171.24 61.37 175.71 61.37 176.39 57.86 177.4 56.93 178.95 61.37 184.31 61.37 181.09 53.71 186.18 48.86" />
      <path d="M193.19,48.51c-5.16,0-7.84,4.24-7.84,8.35,0,3.22,2.19,4.87,5.32,4.87,5.37,0,7.84-4.49,7.84-8.31C198.51,50.42,196.6,48.51,193.19,48.51Zm-1.87,9.87c-.88,0-1.44-.62-1.44-2,0-1.68.77-4.56,2.73-4.56.9,0,1.39.83,1.39,2.07C194,54.76,193.53,58.38,191.32,58.38Z" />
      <polygon points="210.28 48.86 207 55.81 206.37 48.86 201.26 48.86 198.86 61.37 202.81 61.37 203.75 56.45 203.99 52.97 204.07 52.97 204.87 61.37 206.97 61.37 210.99 52.97 211.08 52.97 210.04 56.17 209.04 61.37 212.99 61.37 215.39 48.86 210.28 48.86" />
</svg>
