<?xml version="1.0" encoding="UTF-8" standalone="no"?>
<svg
   xmlns:dc="http://purl.org/dc/elements/1.1/"
   xmlns:cc="http://creativecommons.org/ns#"
   xmlns:rdf="http://www.w3.org/1999/02/22-rdf-syntax-ns#"
   xmlns:svg="http://www.w3.org/2000/svg"
   xmlns="http://www.w3.org/2000/svg"
   xmlns:sodipodi="http://sodipodi.sourceforge.net/DTD/sodipodi-0.dtd"
   xmlns:inkscape="http://www.inkscape.org/namespaces/inkscape"
   width="1000"
   height="350"
   viewBox="0 0 264.58334 92.604164"
   version="1.1"
   id="svg438"
   inkscape:version="1.0.1 (c497b03c, 2020-09-10)"
   sodipodi:docname="loga_akva.svg">
  <defs
     id="defs432" />
  <sodipodi:namedview
     id="base"
     pagecolor="#ffffff"
     bordercolor="#666666"
     borderopacity="1.0"
     inkscape:pageopacity="0.0"
     inkscape:pageshadow="2"
     inkscape:zoom="0.35"
     inkscape:cx="400"
     inkscape:cy="560"
     inkscape:document-units="mm"
     inkscape:current-layer="layer1"
     inkscape:document-rotation="0"
     showgrid="false"
     units="px"
     inkscape:showpageshadow="false"
     showborder="true"
     inkscape:window-width="1502"
     inkscape:window-height="1174"
     inkscape:window-x="839"
     inkscape:window-y="52"
     inkscape:window-maximized="0" />
  <metadata
     id="metadata435">
    <rdf:RDF>
      <cc:Work
         rdf:about="">
        <dc:format>image/svg+xml</dc:format>
        <dc:type
           rdf:resource="http://purl.org/dc/dcmitype/StillImage" />
        <dc:title></dc:title>
      </cc:Work>
    </rdf:RDF>
  </metadata>
  <g
     inkscape:label="Слой 1"
     inkscape:groupmode="layer"
     id="layer1">
    <g
       id="Layer1004"
       transform="matrix(0.96114487,0,0,0.96114487,-119.92833,-174.80482)">
      <path
         d="m 196.5827,226.0158 c 0,-27.1603 -23.2608,-35.3355 -35.5614,-35.8645 l -0.1543,-0.006 h -14.6816 v 14.3712 c 0,0 13.8554,0 14.2981,0 2.6102,0.1552 21.7292,1.9589 21.7292,21.4992 v 26.5965 c -5.1585,-6.1326 -10.0899,-11.9319 -16.2999,-19.2555 -10.7741,-12.6942 -30.0351,-9.1387 -36.5321,4.8188 -6.497,13.9579 3.1877,30.9866 19.8384,31.0517 15.959,0.0595 47.3636,0 47.3636,0 z m -47.5817,31.4561 c -7.4018,-0.4091 -11.9472,-7.6897 -8.8726,-14.296 2.9892,-6.4205 11.4493,-8.0171 16.6303,-2.3747 6.2147,6.7551 10.1023,10.7736 16.337,17.7188 -9.0865,-0.2879 -14.4912,-0.5171 -24.0947,-1.0481 z"
         style="fill:#004b99;fill-rule:evenodd"
         id="path379" />
      <g
         id="Layer1005">
        <path
           d="m 282.5838,194.2736 v -3.5457 h 7.6838 v 27.4094 h -7.6838 v -3.544 c -1.0158,1.4861 -2.231,2.6027 -3.6511,3.3476 -1.421,0.7411 -3.0168,1.1149 -4.7954,1.1149 -4.1469,0 -7.523,-1.4062 -10.1269,-4.218 -2.6048,-2.8118 -3.9063,-6.2908 -3.9063,-10.4364 0,-4.1015 1.2709,-7.5592 3.811,-10.3723 2.5393,-2.8127 5.8206,-4.2188 9.8442,-4.2188 1.9457,0 3.6593,0.3835 5.1411,1.1485 1.4818,0.7653 2.7093,1.8691 3.6834,3.3148 z m -6.903,2.4177 c -2.2553,0 -4.0968,0.7483 -5.5233,2.2433 -1.4261,1.4963 -2.1388,3.3195 -2.1388,5.4668 0,2.231 0.7127,4.087 2.1388,5.5607 1.4265,1.475 3.268,2.2119 5.5233,2.2119 2.2118,0 4.0321,-0.7369 5.4574,-2.2119 1.4244,-1.4737 2.1583,-3.3297 2.2016,-5.5607 0,-2.1473 -0.7236,-3.9705 -2.1702,-5.4668 -1.4473,-1.495 -3.277,-2.2433 -5.4888,-2.2433 z"
           style="fill:#004b99;fill-rule:evenodd"
           id="path381" />
        <path
           d="m 297.6388,190.7279 h 7.6837 v 10.6354 l 10.0568,-10.6354 h 9.4402 l -12.1691,12.2176 12.8562,15.1918 h -9.7179 l -9.3483,-11.3293 -1.1179,1.1391 v 10.1902 h -7.6837 z"
           style="fill:#004b99;fill-rule:evenodd"
           id="path383" />
        <path
           d="m 329.3546,190.7279 h 11.9102 c 1.5805,0 2.8455,0.1275 3.8013,0.3793 0.9571,0.2551 1.8317,0.6769 2.6213,1.2679 0.7896,0.6327 1.4236,1.4151 1.9028,2.3437 0.4754,0.9286 0.7177,1.9423 0.7177,3.038 0,1.2271 -0.3363,2.3437 -1.0005,3.3569 -0.6658,1.0141 -1.5804,1.7744 -2.7429,2.2791 0.6242,0.1688 1.2479,0.4022 1.8713,0.6973 0.6225,0.2968 1.1837,0.6535 1.6855,1.0753 0.6611,0.6753 1.1595,1.4457 1.4933,2.3093 0.3337,0.8674 0.52,1.8045 0.5625,2.8161 0,1.3508 -0.2594,2.5307 -0.7794,3.5448 -0.52,1.0116 -1.2173,1.856 -2.0903,2.5291 -0.7887,0.6357 -1.7037,1.0893 -2.7429,1.3623 -1.0392,0.2747 -2.1409,0.4103 -3.3034,0.4103 h -13.9065 z m 7.6834,10.8948 h 3.3769 c 0.3627,0 0.7151,-0.0412 1.0579,-0.1254 0.3405,-0.0846 0.6318,-0.2109 0.8737,-0.3814 0.3202,-0.2126 0.5596,-0.4754 0.722,-0.7926 0.1603,-0.3151 0.242,-0.685 0.242,-1.1089 0,-0.4227 -0.0817,-0.8019 -0.242,-1.1412 -0.1624,-0.3359 -0.3618,-0.6123 -0.6012,-0.8236 -0.202,-0.1263 -0.4541,-0.2207 -0.7552,-0.2854 -0.301,-0.062 -0.7742,-0.1156 -1.4171,-0.1577 h -3.257 z m 0,0 v 10.4369 h 3.4912 c 0.6519,0 1.191,-0.051 1.6217,-0.1582 0.4286,-0.1054 0.8071,-0.284 1.1315,-0.537 0.2857,-0.2113 0.5209,-0.5162 0.7054,-0.9167 0.1824,-0.4023 0.2747,-0.8343 0.2747,-1.2977 0,-0.3806 -0.0923,-0.7386 -0.2747,-1.0762 -0.1845,-0.3355 -0.4197,-0.6327 -0.7054,-0.887 -0.2849,-0.1679 -0.6408,-0.304 -1.0715,-0.4107 -0.4269,-0.105 -0.9257,-0.179 -1.4992,-0.2228 h -3.6737 v 5.5063 z"
           style="fill:#004b99;fill-rule:evenodd"
           id="path385" />
        <path
           d="m 379.3816,194.2736 v -3.5457 h 7.6837 v 27.4094 h -7.6837 v -3.544 c -1.0166,1.4861 -2.2327,2.6027 -3.652,3.3476 -1.4202,0.7411 -3.0168,1.1149 -4.7954,1.1149 -4.1461,0 -7.5226,-1.4062 -10.1269,-4.218 -2.6052,-2.8118 -3.9054,-6.2908 -3.9054,-10.4364 0,-4.1015 1.2692,-7.5592 3.8102,-10.3723 2.5405,-2.8127 5.8196,-4.2188 9.8445,-4.2188 1.9462,0 3.6597,0.3835 5.1437,1.1485 1.4779,0.7653 2.7072,1.8691 3.6813,3.3148 z m -6.9039,2.4177 c -2.2561,0 -4.0981,0.7483 -5.5233,2.2433 -1.4253,1.4963 -2.1371,3.3195 -2.1371,5.4668 0,2.231 0.7118,4.087 2.1371,5.5607 1.4252,1.475 3.2672,2.2119 5.5233,2.2119 2.2119,0 4.0317,-0.7369 5.457,-2.2119 1.4248,-1.4737 2.1587,-3.3297 2.2033,-5.5607 0,-2.1473 -0.7249,-3.9705 -2.171,-5.4668 -1.447,-1.495 -3.2774,-2.2433 -5.4893,-2.2433 z"
           style="fill:#004b99;fill-rule:evenodd"
           id="path387" />
      </g>
      <path
         d="m 279.9323,226.0371 v 6.8218 c -0.7951,-0.6731 -1.6608,-1.1973 -2.5899,-1.5715 -0.9307,-0.3746 -1.9656,-0.5634 -3.1039,-0.5634 -2.2046,0 -3.9229,0.682 -5.1568,2.0405 -1.2343,1.3581 -1.8317,2.9815 -1.7922,4.8698 0,2.0392 0.6731,3.7103 2.0214,5.0143 1.347,1.3029 3.0665,1.9538 5.1568,1.9538 0.9852,0 1.944,-0.1777 2.8747,-0.5344 0.9291,-0.3568 1.7948,-0.8891 2.5899,-1.5996 v 6.767 c -0.9813,0.4928 -2.0039,0.8691 -3.0623,1.1357 -1.0591,0.2661 -2.1561,0.3992 -3.2884,0.3992 -1.8539,-0.0404 -3.6104,-0.369 -5.2763,-0.9954 -1.6634,-0.6267 -3.0614,-1.489 -4.1954,-2.586 -1.248,-1.1374 -2.2136,-2.5108 -2.8948,-4.1227 -0.6794,-1.6098 -1.0191,-3.385 -1.0191,-5.3175 0,-2.0848 0.3784,-3.9799 1.1344,-5.6857 0.7543,-1.7072 1.796,-3.1461 3.1192,-4.323 1.211,-1.0596 2.5712,-1.8552 4.0811,-2.3871 1.5154,-0.5302 3.1039,-0.7951 4.7673,-0.7951 1.2462,0 2.4083,0.1229 3.487,0.3674 1.0783,0.2479 2.1281,0.6182 3.1473,1.1119 z"
         style="fill:#004b99;fill-rule:evenodd"
         id="path390" />
      <path
         d="m 303.751,231.3422 h -6.682 v 18.6058 h -6.8877 v -18.6058 h -6.682 v -5.9633 h 20.2517 z"
         style="fill:#004b99;fill-rule:evenodd"
         id="path392" />
      <path
         d="m 308.2568,225.3789 h 6.889 v 15.1501 l 11.1007,-15.1501 h 6.886 v 24.5691 h -6.886 v -15.1498 l -11.1007,15.1498 h -6.889 z"
         style="fill:#004b99;fill-rule:evenodd"
         id="path394" />
      <path
         d="m 361.8465,225.3789 v 24.5691 h -6.8878 v -18.6058 h -6.4761 v 8.981 c 0,1.6575 -0.2092,3.0797 -0.6234,4.266 -0.4129,1.1859 -0.9805,2.1741 -1.6974,2.9645 -0.7186,0.7922 -1.6531,1.4236 -2.8024,1.893 -1.1515,0.472 -2.4245,0.7054 -3.8217,0.7054 -0.3414,0 -0.6795,-0.0285 -1.0196,-0.0833 -0.341,-0.06 -0.6795,-0.1072 -1.0188,-0.1442 v -5.9519 c 0.1492,0.077 0.3172,0.1157 0.5056,0.1157 0.1866,0 0.3741,0 0.5604,0 0.5974,0 1.1318,-0.1038 1.5978,-0.3092 0.4682,-0.2087 0.87,-0.5008 1.2063,-0.8771 0.2637,-0.3032 0.4695,-0.6982 0.6174,-1.1889 0.1493,-0.4873 0.2262,-1.1285 0.2262,-1.918 v -14.4163 z"
         style="fill:#004b99;fill-rule:evenodd"
         id="path396" />
      <path
         d="m 367.7397,225.3789 h 6.8891 v 8.7386 h 5.2822 c 1.333,0.0387 2.5575,0.2738 3.6707,0.708 1.1106,0.4358 2.038,1.0319 2.7795,1.7858 0.5919,0.7211 1.0481,1.5256 1.3611,2.4155 0.3155,0.8883 0.4745,1.8424 0.4745,2.8646 -0.0387,1.3606 -0.2806,2.5707 -0.7279,3.6303 -0.4461,1.0613 -1.0622,1.9291 -1.8441,2.6103 -0.671,0.6059 -1.4338,1.06 -2.291,1.3619 -0.8572,0.3015 -1.901,0.4541 -3.129,0.4541 h -12.4651 z m 6.8891,19.1206 h 3.1281 c 0.5851,0 1.0673,-0.0472 1.4538,-0.1424 0.3839,-0.0948 0.7224,-0.2556 1.0158,-0.4809 0.2559,-0.1905 0.463,-0.4618 0.6301,-0.8219 0.1646,-0.361 0.2475,-0.7471 0.2475,-1.1629 0,-0.3402 -0.0829,-0.6616 -0.2475,-0.9639 -0.1671,-0.3032 -0.3742,-0.5664 -0.6301,-0.7964 -0.2577,-0.1501 -0.5779,-0.273 -0.9622,-0.3661 -0.3823,-0.0944 -0.8322,-0.1603 -1.3428,-0.2007 h -3.2927 z"
         style="fill:#004b99;fill-rule:evenodd"
         id="path398" />
      <path
         d="m 235.14,190.1054 h -0.1557 l -0.1522,0.007 c -12.3009,0.5281 -35.5622,8.7034 -35.5622,35.8628 v 43.2995 H 395.0884 V 254.903 c 0,0 -168.0816,0 -181.4468,0 0,-9.2203 0,-28.9278 0,-28.9278 0,-19.5378 19.1173,-21.3432 21.7258,-21.4979 0.4422,0 14.2998,0 14.2998,0 v -14.3721 z m 29.3696,68.5523 v 1.205 h -2.4547 v 5.9757 h -1.4363 v -7.1807 z m 2.4457,0 h 2.1336 c 0.4916,0 0.8781,0.0438 1.16,0.1297 0.2827,0.0863 0.5408,0.2262 0.776,0.421 0.2423,0.2155 0.4269,0.4728 0.5557,0.7708 0.1276,0.2981 0.1918,0.6195 0.1918,0.9644 0,0.3163 -0.0511,0.6144 -0.1535,0.895 -0.1021,0.2807 -0.2522,0.5171 -0.4499,0.7114 -0.2126,0.2087 -0.4724,0.3669 -0.7798,0.4745 -0.307,0.1084 -0.6659,0.162 -1.0762,0.162 h -0.9222 v 2.6519 h -1.4355 z m 1.4355,1.205 v 2.1188 h 0.5825 c 0.2636,0 0.4592,-0.0174 0.5872,-0.054 0.1284,-0.0353 0.2432,-0.0931 0.3457,-0.1731 0.1246,-0.0935 0.2198,-0.2151 0.2857,-0.3678 0.0659,-0.1505 0.1025,-0.3095 0.1101,-0.4749 0,-0.1667 -0.037,-0.321 -0.1101,-0.4652 -0.0731,-0.1437 -0.1722,-0.264 -0.2964,-0.3567 -0.1101,-0.0727 -0.2419,-0.1284 -0.3958,-0.168 -0.1535,-0.0395 -0.358,-0.0591 -0.6144,-0.0591 z m 5.1687,-1.205 h 1.6723 l 1.8611,3.6197 1.574,-3.6197 h 1.5631 l -3.4016,7.1807 h -1.5622 l 1.023,-2.0022 z m 9.0618,0 h 5.8128 v 7.1807 h -1.4354 v -5.9757 h -2.942 v 5.9757 h -1.4354 z m 9.0209,0 h 5.8133 v 7.1807 h -1.4354 v -5.9757 h -2.9415 v 5.9757 h -1.4364 z m 14.0239,7.1807 -0.6051,-1.506 h -3.0367 l -0.6204,1.506 h -1.5511 l 3.1817,-7.3308 h 1.0779 l 3.0942,7.3308 z m -3.1728,-2.6413 h 2.1115 l -1.0422,-2.5932 z m 12.6428,-4.5394 v 3.0359 l 2.6868,-3.0359 h 1.8041 l -3.3242,3.0521 3.4887,4.1286 h -1.8912 l -2.5984,-3.2093 -0.1658,0.1513 v 3.058 h -1.4359 v -7.1807 z m 10.6677,-0.162 c 1.1434,0 2.0818,0.3534 2.8148,1.0609 0.7335,0.7067 1.0996,1.606 1.0996,2.6974 -0.008,1.0979 -0.3759,1.9963 -1.1055,2.6966 -0.7288,0.7003 -1.6655,1.0498 -2.8089,1.0498 -1.1506,0 -2.0907,-0.3495 -2.8203,-1.0498 -0.7296,-0.7003 -1.0936,-1.5987 -1.0936,-2.6966 0,-1.0914 0.364,-1.9886 1.0936,-2.6915 0.7296,-0.7041 1.6697,-1.0591 2.8203,-1.0668 z m 0,6.2309 c 0.7114,0 1.2965,-0.2314 1.7557,-0.6935 0.4588,-0.4622 0.6879,-1.0554 0.6879,-1.7791 0,-0.7245 -0.2291,-1.3198 -0.6879,-1.7849 -0.4592,-0.4665 -1.0443,-0.6995 -1.7557,-0.6995 -0.719,0 -1.3079,0.233 -1.7662,0.6995 -0.4588,0.4651 -0.6842,1.0604 -0.677,1.7849 0,0.7237 0.2271,1.3169 0.6821,1.7791 0.4545,0.4621 1.0421,0.6935 1.7611,0.6935 z m 6.4039,1.1118 1.3645,-7.3078 h 0.9907 l 1.9925,4.6925 2.0792,-4.6925 h 0.9911 l 1.2326,7.3078 h -1.4533 l -0.6599,-4.4254 -2.0141,4.5177 h -0.3963 l -1.9262,-4.519 -0.7487,4.4267 z m 11.482,-7.1807 h 5.8133 v 7.1807 h -1.4363 v -5.9757 h -2.9415 v 5.9757 h -1.4355 z m 14.0239,7.1807 -0.6051,-1.506 h -3.0359 l -0.6212,1.506 h -1.5511 l 3.1817,-7.3308 h 1.0788 l 3.0928,7.3308 z m -3.1733,-2.6413 h 2.1124 l -1.043,-2.5932 z m 8.5397,-4.5394 v 2.7795 h 3.092 v -2.7795 h 1.4359 v 7.1807 h -1.4359 v -3.1962 h -3.092 v 3.1962 h -1.4363 v -7.1807 z m 7.7394,0 h 1.4355 v 4.8269 l 4.0436,-4.9889 h 0.9941 v 7.3427 h -1.4355 v -4.84 l -4.044,4.9901 h -0.9937 z m 9.6805,0 h 1.4363 v 4.8269 l 4.0436,-4.9889 h 0.9937 v 7.3427 h -1.4359 v -4.84 l -4.0432,4.9901 h -0.9945 z m 1.2552,-1.8955 0.9911,-0.3852 c 0.0659,0.1905 0.1828,0.3397 0.3521,0.4498 0.1688,0.1085 0.3818,0.1642 0.639,0.1642 0.2496,0 0.4584,-0.0557 0.6276,-0.1642 0.1684,-0.1101 0.2891,-0.2593 0.3631,-0.4498 l 0.9912,0.3852 c -0.1548,0.3797 -0.4001,0.6739 -0.7378,0.8848 -0.3376,0.2109 -0.753,0.3164 -1.2441,0.3164 -0.4996,0.007 -0.918,-0.0965 -1.2556,-0.3104 -0.3376,-0.2152 -0.5791,-0.5111 -0.7266,-0.8908 z"
         style="fill:#009ee0;fill-rule:evenodd"
         id="path400" />
    </g>
  </g>
</svg>
